Coordinates
version=1
nRows=18
nColumns=22
inDegrees=yes

Units are S.I. units (second, meters, Newtons, ...)
If the header above contains a line with 'inDegrees', this indicates whether rotational values are in degrees (yes) or radians (no).

endheader
time	pelvis_tilt	pelvis_list	pelvis_rotation	pelvis_tx	pelvis_ty	pelvis_tz	hip_flexion_r	hip_adduction_r	hip_rotation_r	knee_angle_r	ankle_angle_r	subtalar_angle_r	hip_flexion_l	hip_adduction_l	hip_rotation_l	knee_angle_l	ankle_angle_l	subtalar_angle_l	lumbar_extension	lumbar_bending	lumbar_rotation
      2.11000000	     -1.70336465	     -1.34878208	    132.01947057	     -0.33298724	      1.00848171	      0.50811582	     20.11642944	     -1.91473387	     -3.35627114	    -50.62686993	     10.14811101	      0.26891419	      6.54331428	      2.75459202	     -4.21366645	    -19.10237097	     13.25131146	      0.44209220	    -14.71932386	     -0.79906602	      0.29331452
      2.12000000	     -1.72167302	     -1.22517694	    131.52938275	     -0.33656960	      1.00867165	      0.50398853	     20.56745168	     -1.95547697	     -4.45349365	    -49.19173593	     10.56160501	      0.55426170	      5.88956782	      2.69073329	     -4.61721724	    -18.79625704	     13.51242535	      0.38331344	    -14.88314807	     -0.71654224	      0.14964854
      2.13000000	     -1.73347358	     -1.15627726	    131.03196170	     -0.34008102	      1.00871738	      0.49982337	     21.04835879	     -2.05036093	     -5.65137224	    -47.72126318	     10.94955059	      0.71963896	      5.30613361	      2.65960943	     -5.07531132	    -18.52797303	     13.74415705	      0.33235502	    -15.00091781	     -0.67619076	      0.02156929
      2.14000000	     -1.73475421	     -1.09262295	    130.53529224	     -0.34354320	      1.00870110	      0.49559450	     21.50379450	     -2.15037736	     -6.95422989	    -46.19583877	     11.27874682	      0.82047479	      4.73596715	      2.62857196	     -5.52895192	    -18.26499007	     13.98102021	      0.28727950	    -15.10959990	     -0.63271417	     -0.08410432
      2.15000000	     -1.72617252	     -1.02691337	    130.03925573	     -0.34695643	      1.00863547	      0.49128083	     21.92365452	     -2.23869906	     -8.35110818	    -44.61910287	     11.54826560	      0.88459500	      4.16808925	      2.59260809	     -5.97419364	    -18.00068431	     14.22954807	      0.24697324	    -15.21414068	     -0.58213055	     -0.17002247
      2.16000000	     -1.72987129	     -0.95083755	    129.53491509	     -0.35031668	      1.00855545	      0.48686598	     22.28796245	     -2.31694862	     -9.82179712	    -43.00066426	     11.73715830	      0.92627213	      3.57672963	      2.56133840	     -6.44245650	    -17.72967615	     14.46337206	      0.20865235	    -15.33880946	     -0.53820544	     -0.23777163
      2.17000000	     -1.69510393	     -0.89496595	    129.03860181	     -0.35361387	      1.00835944	      0.48235877	     22.65670646	     -2.35508480	    -11.36347461	    -41.34914219	     11.85297364	      0.97702172	      3.03410446	      2.51417078	     -6.89572162	    -17.47428560	     14.73147366	      0.17891891	    -15.41697861	     -0.48001284	     -0.28707004
      2.18000000	     -1.69418500	     -0.80540769	    128.53052672	     -0.35686349	      1.00820546	      0.47773548	     22.93603728	     -2.37216604	    -12.96204319	    -39.66960855	     11.84796953	      1.03200700	      2.42231049	      2.47813323	     -7.35187914	    -17.19480272	     14.97008690	      0.15679331	    -15.55229335	     -0.43259379	     -0.27726215
      2.19000000	     -1.69631690	     -0.71762937	    128.02043050	     -0.36004159	      1.00800220	      0.47299136	     23.17910205	     -2.35217453	    -14.58188998	    -37.97088860	     11.75392170	      1.11053783	      1.80326405	      2.44594266	     -7.83265294	    -16.90881766	     15.20761750	      0.14529976	    -15.68741946	     -0.39731177	     -0.26670230
      2.20000000	     -1.71108102	     -0.62557556	    127.51358893	     -0.36316471	      1.00776283	      0.46813875	     23.37628675	     -2.30075279	    -16.21529545	    -36.26179366	     11.55953987	      1.22346873	      1.16618430	      2.42280951	     -8.33329173	    -16.61773861	     15.43648259	      0.14815463	    -15.83567350	     -0.37377404	     -0.25587780
      2.21000000	     -1.70146142	     -0.54450807	    127.02760102	     -0.36623291	      1.00742673	      0.46320823	     23.56441227	     -2.19877928	    -17.86300737	    -34.54462022	     11.26236008	      1.37456872	      0.55603023	      2.39010228	     -8.79503479	    -16.33405470	     15.68883571	      0.16075939	    -15.95669012	     -0.33842133	     -0.22038112
      2.22000000	     -1.71725480	     -0.45713000	    126.55727668	     -0.36925729	      1.00706070	      0.45819672	     23.70185702	     -2.07654192	    -19.49181722	    -32.83444444	     10.88009232	      1.55886030	     -0.08100439	      2.37667393	     -9.26505032	    -16.04415283	     15.92480478	      0.18928468	    -16.10373875	     -0.32112977	     -0.19982537
      2.23000000	     -1.76255118	     -0.36831549	    126.10899560	     -0.37223247	      1.00665788	      0.45312695	     23.79515406	     -1.94399536	    -21.07910531	    -31.14139911	     10.42875771	      1.77564599	     -0.73635667	      2.38885857	     -9.72916495	    -15.75808775	     16.14289299	      0.23707726	    -16.27715838	     -0.32673380	     -0.20118369
      2.24000000	     -1.78297245	     -0.30565749	    125.70702210	     -0.37518594	      1.00611532	      0.44802618	     23.90027142	     -1.78157402	    -22.62985854	    -29.46888818	      9.95542344	      1.99574784	     -1.33965137	      2.39727339	    -10.13016942	    -15.49669118	     16.39002309	      0.28245282	    -16.40934750	     -0.31861232	     -0.21214957
      2.25000000	     -1.84581227	     -0.23829539	    125.33787062	     -0.37811539	      1.00553958	      0.44289124	     23.95690494	     -1.62969515	    -24.09908544	    -27.83778760	      9.47737423	      2.22893894	     -1.96640790	      2.43897371	    -10.51575986	    -15.24738205	     16.61517891	      0.34503668	    -16.58091728	     -0.33785750	     -0.25659710
      2.26000000	     -1.91828225	     -0.18334864	    125.01362541	     -0.38104583	      1.00486994	      0.43772627	     23.99875027	     -1.47798594	    -25.47123636	    -26.25354886	      9.02817380	      2.44904646	     -2.57449978	      2.49491094	    -10.85777047	    -15.02286552	     16.84615739	      0.41387094	    -16.74754444	     -0.36106360	     -0.34015470
      2.27000000	     -2.00756262	     -0.14055933	    124.73115795	     -0.38400025	      1.00411127	      0.43252302	     24.02437170	     -1.33877750	    -26.71842228	    -24.73396358	      8.63045386	      2.63776496	     -3.16725890	      2.57068078	    -11.16023033	    -14.82850250	     17.07733715	      0.48802429	    -16.91172890	     -0.39084475	     -0.46045700
      2.28000000	     -2.08280319	     -0.13962900	    124.50356317	     -0.38697218	      1.00319965	      0.42729795	     24.07721219	     -1.20723695	    -27.80977365	    -23.28220179	      8.26112461	      2.76539837	     -3.68252514	      2.65023777	    -11.41140656	    -14.69339842	     17.31968748	      0.54592878	    -17.02513200	     -0.41654706	     -0.64591554
